<?xml version="1.0" standalone="no"?>
<!DOCTYPE svg PUBLIC "-//W3C//DTD SVG 20010904//EN"
 "http://www.w3.org/TR/2001/REC-SVG-20010904/DTD/svg10.dtd">
<svg version="1.0" xmlns="http://www.w3.org/2000/svg"
 width="500.000000pt" height="500.000000pt" viewBox="0 0 500.000000 500.000000"
 preserveAspectRatio="xMidYMid meet">
<metadata>
Created by potrace 1.16, written by Peter Selinger 2001-2019
</metadata>
<g transform="translate(0.000000,500.000000) scale(0.100000,-0.100000)"
fill="#000000" stroke="none">
<path d="M0 2500 l0 -2500 2500 0 2500 0 0 2500 0 2500 -2500 0 -2500 0 0
-2500z m2515 993 c3 -16 13 -51 21 -79 l15 -51 62 -6 c151 -14 347 -105 471
-218 145 -132 250 -337 272 -530 l7 -58 51 -15 c28 -8 63 -18 79 -21 15 -4 27
-11 27 -15 0 -4 -12 -11 -27 -15 -16 -3 -51 -13 -79 -21 l-51 -15 -7 -64 c-19
-183 -137 -406 -281 -531 -135 -118 -353 -213 -487 -214 -36 0 -37 -1 -52 -52
-8 -29 -18 -65 -21 -80 -9 -36 -21 -36 -30 0 -3 15 -13 51 -21 80 -15 51 -16
52 -52 52 -63 0 -199 38 -286 79 -187 90 -341 249 -418 433 -35 84 -68 208
-68 259 0 37 -1 38 -52 53 -29 8 -65 18 -80 21 -16 4 -28 11 -28 15 0 4 12 11
28 15 15 3 50 13 78 21 l51 15 6 69 c17 201 153 433 336 572 118 89 321 168
432 168 37 0 38 1 53 53 8 28 18 64 21 80 4 15 11 27 15 27 4 0 11 -12 15 -27z"/>
<path d="M2369 3146 c-3 -3 -20 -8 -38 -11 -86 -15 -235 -101 -307 -177 -23
-23 -57 -66 -75 -93 -30 -44 -42 -69 -80 -160 -4 -11 -11 -35 -15 -54 l-6 -34
37 7 c20 4 44 10 52 13 12 5 15 2 10 -10 -3 -9 -9 -39 -13 -67 -6 -48 -6 -50
17 -50 31 0 158 33 186 48 12 7 23 12 25 12 2 0 3 -32 3 -70 0 -59 -2 -69 -15
-64 -49 22 -122 44 -168 50 l-52 7 0 -29 c0 -16 4 -45 9 -65 l8 -36 -44 9
c-24 6 -47 7 -50 4 -10 -10 26 -115 66 -191 51 -99 172 -218 272 -267 82 -40
176 -71 183 -59 3 4 1 25 -4 46 -5 22 -8 40 -7 41 1 2 31 -1 65 -5 l64 -8 -7
46 c-4 25 -17 79 -31 119 -13 40 -24 74 -24 77 0 2 17 3 37 1 20 -1 54 1 75 4
l37 7 -16 -36 c-20 -45 -52 -159 -52 -188 -1 -19 4 -23 32 -23 17 0 47 4 65 9
l33 10 -6 -32 c-4 -18 -9 -42 -12 -54 -5 -21 -4 -21 44 -7 138 40 267 130 356
247 38 50 93 159 103 205 3 15 8 35 11 45 4 15 1 18 -14 14 -10 -3 -32 -8 -49
-12 l-32 -6 5 65 c4 40 2 66 -4 66 -26 0 -166 -41 -202 -59 -52 -27 -52 -27
-39 10 6 17 8 56 5 86 -5 49 -4 54 11 48 51 -22 153 -53 191 -60 l44 -7 -6 67
-6 66 32 -6 c18 -4 40 -9 50 -11 22 -7 22 -1 -8 85 -44 129 -121 238 -223 313
-65 49 -184 105 -235 114 -34 5 -38 3 -34 -13 3 -10 9 -33 12 -52 6 -29 5 -33
-9 -28 -9 4 -38 9 -66 13 -44 6 -50 4 -50 -12 0 -28 31 -145 52 -193 l18 -43
-22 6 c-13 3 -49 6 -81 6 l-58 0 14 28 c20 38 44 119 52 171 l7 44 -67 -8
c-62 -6 -67 -5 -62 12 17 59 20 92 6 79z"/>
</g>
</svg>
