<?xml version="1.0" standalone="no"?>
<!DOCTYPE svg PUBLIC "-//W3C//DTD SVG 20010904//EN"
 "http://www.w3.org/TR/2001/REC-SVG-20010904/DTD/svg10.dtd">
<svg version="1.0" xmlns="http://www.w3.org/2000/svg"
 width="500.000000pt" height="500.000000pt" viewBox="0 0 500.000000 500.000000"
 preserveAspectRatio="xMidYMid meet">
<metadata>
Created by potrace 1.16, written by Peter Selinger 2001-2019
</metadata>
<g transform="translate(0.000000,500.000000) scale(0.100000,-0.100000)"
fill="#000000" stroke="none">
<path d="M2491 2701 c-6 -11 -11 -60 -11 -110 0 -88 -1 -91 -54 -198 -72 -143
-142 -235 -209 -273 -60 -34 -87 -37 -110 -12 -22 24 -21 78 2 191 29 136 21
153 -96 216 -1 0 9 24 23 52 23 46 25 56 14 88 -35 105 -185 22 -164 -90 8
-43 56 -94 113 -120 22 -9 42 -24 45 -32 3 -7 1 -49 -5 -91 -28 -199 41 -296
167 -236 54 26 145 133 209 248 42 74 61 99 62 83 1 -12 7 -132 13 -267 10
-188 10 -266 1 -335 -13 -97 -5 -145 24 -145 30 0 38 42 28 152 -7 84 -6 125
10 227 38 253 108 466 173 526 31 29 74 32 96 8 31 -36 58 -177 35 -186 -7 -2
-40 -25 -74 -51 -102 -77 -156 -180 -133 -252 14 -40 35 -54 84 -54 45 0 107
53 142 122 28 54 54 156 54 209 0 33 4 38 39 52 44 18 175 52 239 62 28 5 42
12 42 22 0 13 -8 14 -47 8 -37 -5 -152 -38 -254 -71 -13 -5 -18 4 -24 42 -20
139 -102 209 -181 157 -73 -48 -147 -231 -194 -483 l-18 -95 -1 200 c-1 110 4
241 11 290 19 145 18 159 -14 163 -18 2 -30 -3 -37 -17z m366 -390 c-16 -147
-111 -273 -165 -219 -26 26 -11 94 36 162 22 31 116 115 131 116 2 0 1 -27 -2
-59z"/>
</g>
</svg>
